<svg xmlns="http://www.w3.org/2000/svg" height="111.904" width="113.099" clip-rule="evenodd" fill-rule="evenodd" stroke-linejoin="round" stroke-miterlimit="1.414"><path d="M96.018 16.054C88.238 8.477 78.647 3.406 68.25 1.234c6.414 2.65 12.314 7.477 17.235 14.222 7.834 10.737 12.297 25.112 12.55 40.46.016.935-.239 1.836-.7 2.506a2.849 2.849 0 01-.4.464l12.791-.076a3.381 3.381 0 003.372-3.467c-.308-14.908-6.38-28.87-17.08-39.289z" fill="url(#a)" fill-rule="nonzero"/><path d="M15.401 56.406c.077-15.355 4.367-29.778 12.08-40.608C32.437 8.832 38.452 3.88 45.006 1.195c-10.677 2.21-20.497 7.464-28.383 15.33C6.047 27.07.147 41.093 0 56.015a3.446 3.446 0 00.985 2.429 3.41 3.41 0 002.428.996l13.123-.074a3.321 3.321 0 01-.413-.463c-.47-.666-.728-1.563-.722-2.497z" fill="url(#b)" fill-rule="nonzero"/><path d="M98.047 55.92c-.265-15.352-4.715-29.721-12.549-40.458C80.576 8.717 74.677 3.889 68.263 1.24A57.347 57.347 0 0058.255.055c3.663 1.733 7.07 7.207 9.793 15.844 3.352 10.614 5.281 24.804 5.442 39.94.012.927-.097 1.815-.283 2.475-.093.314-.203.56-.328.736l24.076-.14c.143-.13.285-.291.4-.464.454-.688.709-1.589.692-2.525z" fill="url(#c)" fill-rule="nonzero"/><path d="M38.833 58.495c-.197-.653-.316-1.55-.316-2.471-.021-15.136 1.75-29.342 4.98-39.995 2.605-8.593 5.91-14.08 9.516-15.902-2.708.171-5.39.525-8.008 1.068-6.554 2.685-12.57 7.637-17.523 14.603-7.714 10.83-11.995 25.25-12.08 40.608-.007.934.255 1.84.725 2.507.122.178.264.327.413.462l22.633-.133a2.328 2.328 0 01-.34-.747z" fill="url(#d)" fill-rule="nonzero"/><defs><linearGradient gradientTransform="rotate(45.132 47.95 27.024) scale(117.279)" gradientUnits="userSpaceOnUse" y2="0" x2="1" y1="0" x1="0" id="a"><stop offset="0" stop-color="#fa357f"/><stop offset="1" stop-color="#7878ff"/><stop offset="1" stop-color="#7878ff"/></linearGradient><linearGradient gradientTransform="scale(113.1167) rotate(-.336 45.924 .374)" gradientUnits="userSpaceOnUse" y2="0" x2="1" y1="0" x1="0" id="b"><stop offset="0" stop-color="#fff361"/><stop offset="1" stop-color="#ffa80a"/></linearGradient><linearGradient gradientTransform="scale(103.35832) rotate(49.688 .28 .39)" gradientUnits="userSpaceOnUse" y2="0" x2="1" y1="0" x1="0" id="c"><stop offset="0" stop-color="#ff5162"/><stop offset="1" stop-color="#83219d"/></linearGradient><linearGradient gradientTransform="scale(32.65352) rotate(43.188 -.294 .98)" gradientUnits="userSpaceOnUse" y2="0" x2="1" y1="0" x1="0" id="d"><stop offset="0" stop-color="#ffd943"/><stop offset="1" stop-color="#ffa80a"/></linearGradient><linearGradient gradientTransform="scale(80.25871) rotate(57.193 .222 .29)" gradientUnits="userSpaceOnUse" y2="0" x2="1" y1="0" x1="0" id="e"><stop offset="0" stop-color="#ff8748"/><stop offset=".13" stop-color="#fe7852"/><stop offset=".5" stop-color="#fc546a"/><stop offset=".81" stop-color="#fa3d79"/><stop offset="1" stop-color="#fa357f"/></linearGradient></defs><path d="M78.339 84.896a4.59 4.59 0 00-6.488.035l-11.14 11.277-.356-60.3a4.607 4.607 0 00-4.622-4.569 4.607 4.607 0 00-4.568 4.623l.356 60.3-11.277-11.14a4.59 4.59 0 00-6.488.035 4.59 4.59 0 00.035 6.488l19.161 18.934a4.59 4.59 0 006.488-.035l18.934-19.16a4.594 4.594 0 00-.035-6.488z" fill="#0060df" fill-rule="nonzero"/><path d="M53.004.13c-3.607 1.823-6.92 7.313-9.517 15.903-3.23 10.652-4.991 24.855-4.98 39.994 0 .922.116 1.81.316 2.471.1.316.215.56.337.739l33.703-.202c.125-.176.234-.422.328-.736.195-.664.295-1.548.282-2.475-.16-15.136-2.095-29.314-5.442-39.94C65.311 7.256 61.896 1.786 58.238.04 57.566.02 56.894 0 56.22 0c-1.075.016-2.15.064-3.216.13z" fill="url(#e)" fill-rule="nonzero"/></svg>